<?xml version="1.0" encoding="UTF-8"?>
<!DOCTYPE svg PUBLIC "-//W3C//DTD SVG 1.1//EN" "http://www.w3.org/Graphics/SVG/1.1/DTD/svg11.dtd">
<!-- Creator: CorelDRAW 2021.5 -->
<svg xmlns="http://www.w3.org/2000/svg" xml:space="preserve" width="6.78439in" height="5.35101in" version="1.1" style="shape-rendering:geometricPrecision; text-rendering:geometricPrecision; image-rendering:optimizeQuality; fill-rule:evenodd; clip-rule:evenodd"
viewBox="0 0 6519.06 5141.73"
 xmlns:xlink="http://www.w3.org/1999/xlink"
 xmlns:xodm="http://www.corel.com/coreldraw/odm/2003">
 <defs>
  <style type="text/css">
   <![CDATA[
    .fil0 {fill:#000002}
   ]]>
  </style>
 </defs>
 <g id="Layer_x0020_1">
  <metadata id="CorelCorpID_0Corel-Layer"/>
  <path class="fil0" d="M2560.63 4400.66c24.31,14.68 -13.41,6.03 29.69,15.07 9.15,29.67 -3.82,24.59 29.11,38.27 20.63,8.57 21.48,16.24 43.47,27.48 54,27.61 47.91,23.13 114.42,28.24 -2.21,24.12 -0.87,3.36 -7.12,21.54l-21.22 70.56c-11.81,28 -7.18,26.45 0.2,51.57 2.56,8.72 4.34,14.89 6.72,22.28l1.76 5.44c0.17,0.75 0.38,1.96 0.5,2.7l0.34 14.29c32.98,12.77 13.65,10.97 51.6,11.19 12.26,0.08 21.59,2.42 29.11,8.72 6.52,5.46 31.01,32.97 57.61,50.52 25.82,17.03 0.99,-0.98 33,41.95 12.9,17.3 7.75,35.14 9.76,61.57 5.16,67.88 6.12,16.54 -3.19,63.25l-18.14 56.5c-14.84,50.06 1.78,5.45 -32.22,43.31 -27.55,30.68 -69.74,22.2 -110.99,5.38 -26.39,-10.76 -25.15,-13.37 -41.13,-29.74 -26.18,-26.82 -53.89,-33.08 -73.75,-72.21 -44.22,-87.13 -45.4,-67.5 -46.04,-172.68 -34.77,-8.36 -9.35,-5.86 -29.17,-15 -15.9,-7.34 -4.26,5.37 -23.94,10.06 -27.45,6.54 -22.67,3.4 -49.17,37.53 -41.64,53.62 -97.27,111.6 -171.89,106.16 -34.28,-2.5 -45.89,-10.48 -75.89,-15.17 -36,-5.63 -45.45,-5.18 -53.52,-38.13 -4.84,-19.76 -21.39,-42.56 -2.17,-72.79 14.52,-22.85 15.04,-42.07 29.84,-61.83 22.02,-29.4 1.59,-11.1 38.25,-53.18 4.93,-5.65 6.42,-6.4 10.06,-10.85 37.2,-45.52 30.95,-25.67 61.78,-46.92 30.19,-20.8 7.51,-10.67 38.31,-12.13 39.69,-1.89 136.08,-6.06 149.23,-37.13 0.22,-0.51 8.64,-31.62 10.3,-36.93 4.5,-14.51 5.1,-27.06 5.1,-38.77 -0.04,-35.92 10.91,6.29 9.38,-80.1zm2378.81 -1708.57c6.73,0.27 4.46,-1.29 5.16,6.35 1.39,6.84 3.87,18.09 4.21,19.02 2.52,7.14 4.55,7.44 14.69,13.47 20.89,12.41 20.05,9.39 48.6,2.84 75.66,-17.35 53.24,-17.97 73.71,-26.21 13.65,-5.49 34.03,-0.44 73.04,-23.05 24.48,-14.19 13.66,-10.34 46.1,-20.7 24.18,-7.72 17.96,-16.33 41.66,-25.15 24.09,-8.96 26.3,-11.41 39.36,-26.4 -0.88,-10.5 -5.61,-22.94 -5.3,-29.53 0.71,-15.06 13.37,-7.65 1.85,-20.9 -26.66,-5.27 -21,-25.48 -50.13,-5.86l-60.64 29.14c-48.63,31.44 -31.96,15.03 -85.87,38.76 -14.77,6.51 -11.52,1.86 -25.99,7.4 -41.03,15.72 -2.56,5.77 -49.17,13.35 -41.29,6.71 -35.88,10.71 -47.59,15.2 -28.01,10.74 -24.49,-4.41 -23.69,32.27zm-2150.08 1291.25c-34.26,-3.25 13.86,-8.91 -70.93,-9.36 -65.88,-0.34 -70.84,-25.6 -90.39,-58.15 -14.89,-24.8 -16.73,-65.06 -11.48,-87.78 8.94,-38.68 8.31,-35.96 19.84,-55.56 9.2,-15.65 2.24,-13.9 9.7,-27.39 6.51,-11.78 7.15,-5.46 17.39,-20.56 24.73,-36.46 15.19,-33.58 10.82,-74.11l-0.87 -4.89c-22.92,-5.09 -3.73,3.34 -25.76,-13.14 -28.93,5.96 -48.72,23.88 -58.6,51.35 -5.59,15.56 -0.64,12.26 -3.4,19.25 -6.57,16.64 -12.46,-1.08 -29.78,43.22 -7.82,20 -14.75,65.87 -16.95,86.72 -3.33,31.56 3.09,7.3 1.87,39.17 -1.36,35.52 27.57,99.1 39.65,112.34 10.55,11.57 18.83,8.21 28.79,25.74 7.74,13.63 -5.73,0.99 9.4,15.29 23.39,22.1 103.46,39.45 146.45,21.65 47.65,-19.74 20.05,-26.88 24.27,-63.79zm18.81 -1293.78c7.94,-2.44 6.92,-4.05 4.14,3.77 6.7,-0.87 5.07,-2.25 4.43,4.62 7.17,-2.19 6.16,-4.29 5.76,2.41l5.9 6.25 6.36 2.11c22.06,0.2 44.92,14.74 57.51,25.74 20.16,17.6 38.71,11.68 61.81,17.92 18.39,4.97 15.71,8.25 40.29,13.75 20.02,4.49 28.6,2.71 47.85,6.22 22.38,4.08 18.78,10.92 39.6,14.38l104.57 0.47c7.93,-2.26 -6.6,0.88 8.53,-3.37 25.1,-7.06 91.56,11.56 116.4,-0.29 22.01,-10.5 -5.7,-6.75 40.51,-12.33 21.88,-2.64 68.61,-15.84 86.42,-22.72 28.79,-11.12 45.42,-28.09 68.81,-36.34l-4.65 -35.84c0.64,-6.88 -1.26,-5.56 5.39,-4.4l-15.96 -15.78c-0.59,-1.35 -1.78,-1.45 -2.69,-2.15 -18.65,-11.23 -18.6,-6.59 -55.4,6.84l-135.94 43.3 -288.27 -15.33c-32.03,-3.58 -15.59,-0.55 -37.06,-13.58 -21.48,-13.03 -45.34,-9.89 -74.51,-29.56 -11.3,-7.62 -21.79,-14.33 -31.73,-18.06 -42.08,-15.79 -10.45,-10.05 -30.97,-18.56 -19.76,9.64 0.56,8.24 -19.42,13.57 -9.42,2.52 -14.08,1.57 -26.31,6.79 4.35,12.43 9.43,15.34 14.77,26.81 3.73,8.05 2.91,2.07 4.03,16.27 0.26,3.25 -0.2,13.35 -0.17,17.07zm-2162.7 -730.74c-28.5,-9.26 -85.91,-38.92 -138.24,-21.66 1.41,8.8 -3.17,48.58 -1.05,53.07 1.9,4.04 15.56,16.86 21.15,20.17 8.24,4.88 19.72,7.73 29.54,10.99 19.37,6.43 14.36,4.3 33.03,5.49 15.73,1 8.86,6.37 26.16,7.87 47.06,4.07 -7.1,3.14 57.26,15.66 21.4,4.17 14.91,6.16 32.3,10.51 12.75,3.19 20.44,3.31 34.09,7.48 61.33,18.74 47.39,3.96 71.96,11.81l91.46 26.17c9.22,1.55 19.81,4.48 31.06,5.87 0.21,0.47 0,1.4 0.02,1.55l0.24 2.77c2.6,7.47 -11.7,-6.27 2.09,3.23 20.27,13.96 89.91,17.43 95.39,19.78 14.04,6.02 7.82,10.09 27.72,17.53 79.05,29.53 58.06,17.76 110.92,27.29 15.22,2.75 17.93,5.26 23.92,13.08 0.47,0.61 1.64,3.53 2.35,4.72 23.77,5.84 11.4,-1.78 26.94,0.97 21.51,3.81 0.6,-0.88 18.39,9.59 11.52,6.77 11.81,4.03 23.6,9.17 8.66,3.78 7.63,5.3 19.74,9.6 9.13,3.24 43.32,14.17 46.52,14.72 29.75,5.1 8.61,-10.81 41.43,14.67 21.74,16.88 31.96,2.99 42.19,9.87 17.38,11.68 -21.74,-5.78 7.36,10.23 5.63,3.1 16.1,5.99 21.71,7.96 16.22,5.69 29.9,11.87 45.14,17.74 27.12,10.46 18.3,-4.3 37.87,11.9l12.54 8.29c19.84,9.48 24.68,5.8 31.27,7.86 20.22,6.33 -6.62,0.89 18.93,12.68 6.78,3.13 14.89,4.34 22.29,7.69 54.74,24.75 34.64,20.06 88.25,35.97 20.58,6.11 1.84,2.41 21.03,12.74l61.39 30.43c24.79,15.16 42.25,7.25 64.32,27.48 6.56,6.01 3.42,3.68 7.73,9.06 14.98,18.7 49.79,7.24 61.82,-0.28 1.87,-13.65 -0.95,-17.75 2.04,-27.73 3.76,-12.58 5.15,-1.82 9.78,-18.13l-33.62 -27.34c-10.6,-4.84 -8.64,-1.93 -21,-8.57 -5.55,-2.98 -12.96,-6.74 -18.74,-10.34 -15.57,-9.68 -15.03,-14.21 -37.11,-25.24 -82.08,-40.99 -126.57,-57.23 -208.76,-91.25l-83.78 -37.28c-31.13,-12.6 -58.39,-19.26 -90.64,-30.22 -23.04,-7.84 -8.05,-10.64 -86.57,-34.54l-247.37 -81.94c-67.79,-24.46 -79.58,-21.14 -140.89,-42.43l-119.32 -30.88c-25.77,-3.92 -26.6,-6.51 -45.54,-12.7l-150.33 -33.1zm4470.12 73.56c10.93,6.29 6.51,1.18 8.69,12.92 -8.15,-4.74 -3.78,12.34 -8.69,-12.92zm112.75 -500.95c-26.52,-54.04 -57.65,-7.26 -68.97,0.25l-2.06 -15.33 -25.03 14.13c-33.33,10.63 -57.24,64.82 -83.64,93.49 -8.87,9.64 -6.63,2.89 -15.35,15.65 -12.14,-18.42 -26.79,-12.01 -39.06,-27.65 -7.87,-10.03 -1.48,-9.31 -13.19,-19.49 -17.34,-15.09 -47.51,-25.5 -66.48,-33.93 -22.71,-10.1 -5.47,-14.8 -35.89,-26.52 -75.21,-28.98 -83.78,-46.34 -134.92,-28.82 -21.79,7.46 -20.15,21.23 -38.03,16.42 11.45,21.6 16.31,4.38 2.8,24.66 -13.29,19.96 0.59,17.63 4.56,28.6 8.35,23.06 -0.09,6.53 -1.26,20.27 -1.98,23.3 15.71,4.49 6.91,20.94 -4.29,8.01 1.05,0.43 -4.94,3.5 14.35,4.88 20.14,8.27 31,14.79 17.42,10.47 9.77,4.45 29.88,10.96 13.99,6.96 -7.2,10.77 38.93,24.3 33.95,9.95 22.13,18.5 43.22,27.92 20.75,9.27 37.53,8.22 43.05,23.59 8.49,23.64 11.12,15.3 27.43,38.43 -7.4,11.22 -5.37,5.43 -14.21,14.1 -4.57,4.49 -9.05,10.12 -13.55,15.58 -33.41,40.49 -53.01,41.94 -89.22,73.38 -55.38,48.07 -14.78,13.24 -65.98,46.6 -7.61,4.96 -11.65,6.32 -18.06,10.99 -5.58,4.07 -3.12,4.35 -14.53,10.84l-32.75 21.19 12.26 35.73c13.63,31.77 -2.89,28.88 18.81,39.67 -7.01,7.53 -7.15,5.05 -12.45,15.15 41.53,-3.81 29.38,31.66 50.22,12.31l3.96 8.16c0.19,0.52 0.54,1.87 0.68,2.32 4.09,13.36 -3.72,-4.9 0.58,5.53 26.24,-8.95 58.14,-23.48 78.69,-37.21 23.96,-16 6.65,-15.75 34.29,-23.66 14.1,-4.03 28.39,-8.95 38.01,-21.37 28.59,-36.84 24.93,-25.66 67.32,-48.98 18.17,-9.99 4.47,-1.86 10.49,-12.96 4.87,-9 31.54,-28.61 46.35,-34.68l6.8 10.44c13.57,21.57 12.84,12.62 20.13,26.19l58.15 124.9c11.35,-2.47 0.68,1.93 14.88,-8.45 8.52,38.52 19.34,12.82 36.28,39.2l18.98 -9.33c20.15,-6.19 19.59,-9.94 30.83,-17.74l23.08 -8.71c-0.81,-23.15 -4.72,-29.14 -13.57,-47.7 -13.51,-28.35 -2.65,-11.93 9.46,-28.89 2.87,-4.02 6.51,9.58 3.56,-11.77 -2.18,-15.74 -13.4,-8.99 -18.63,-23.32 -5.79,-15.87 4.76,-1.61 -1.83,-19.91 -4.2,-11.65 -4.21,-3.1 -9.39,-14.69 -5.22,-11.68 0.71,-14.36 -12.61,-38.03l-42.58 -70.03c-7.43,-8.76 -21.92,-14.16 -26.33,-26.53 7.44,-3.42 12.06,-0.86 28.45,-12.01 37.57,-25.58 3.02,-20.24 38.29,-45.4 34.68,-24.73 13.4,-29.67 32.74,-50.17 9.74,-10.32 11.29,-8.02 14.31,-10.91 20.24,-19.34 14.5,-58.38 -5.22,-75.83 9.52,-10.23 19.61,-10.74 20.12,-27.26 0.72,-23.01 -11.33,-12.49 -25.78,-12.93zm-2294.86 575.29c0.49,-0.67 1.78,0.9 1.78,1.73 0,0.34 0.77,0.73 0.73,0.7 -0.15,-0.14 -8.6,5.93 -2.52,-2.42zm-51.93 -587.26c-14.48,-6.52 -1.25,-3.18 -16.89,-7.44 2.79,18.57 2.49,3.76 8.29,19.82 -8.33,-5.32 -8.93,-7.23 -16.82,-13.17 -10.43,6.56 -6.73,5.75 -18.09,11.46l-17.17 14.83c2.15,6.24 5.37,15.82 8.42,22.44 14.73,31.94 7.46,16.11 10.62,50.02 2.27,24.51 20.21,34.66 47.58,45.96 20.76,8.57 32.31,17.35 50.28,22.27 21.36,5.86 14.22,18.09 35.58,25.54 15.59,5.44 35.03,11.51 45.27,25.88 9.36,13.14 24.28,27.9 41.67,31.88 18.38,4.2 -3.27,-2.72 10.61,1.64 20.17,6.34 2.02,0.04 7.27,12.3 4.07,9.53 1.55,-3.41 7.62,12.22 -30.53,31.4 -49.69,39.93 -81.22,73.47 -24.69,26.27 -46.64,35.92 -81.55,76.77 -12.57,14.72 -11.75,5.71 -26.93,27.15 -9.3,13.13 -17.35,14.25 -25.77,28.18 12.33,1.73 -1.96,-7.69 15.73,-1.27l-13.27 16.68 19.04 51.31c2.67,8.1 3.3,6.27 -4.92,15.4 18.6,12.02 0.76,-5.43 25.06,14.97 3.45,2.9 28.12,20.38 31.75,22.06 17.18,-17.36 48.79,-19.09 70.93,-37.13l28.6 -25.49c17.45,-14.75 11.44,-19.91 25.85,-32.77 9.47,-8.45 21,-10.61 26.61,-22.2l26.46 -24.54c9.08,-5.55 18.56,-15.19 29.98,-24.31 27.43,-21.91 12.85,-21.04 18.91,-29.03 1.03,-0.63 2.63,-2.61 3.2,-1.68 0.57,0.93 2.4,-1.27 3.19,-1.63 10.99,-5.02 -1.29,0.4 6.47,-2.91 15.23,-6.51 15.12,-12.07 30.7,-2.15 -4.88,13.22 -5.89,4.01 -11.26,16.44 1.56,1.72 5.99,5.4 8.22,7.66l24.43 29.9c20.49,19.59 25.14,3.14 36.4,29.41l-10.07 -1.07c2.04,23.8 23.96,37.97 34.23,56.94 35.46,65.51 43.34,26.17 63.17,61.91 8.78,15.84 1.96,9.15 17.12,20.14 9,6.53 13.08,11.36 21.28,15.29 10.72,-17.66 -6.14,-4.7 6.64,-17.27 0.01,0 4.93,1.65 12.85,0.13l16.66 -4.51c9.68,-2.74 22.87,-8.94 27.87,-17.89 5.33,-24.09 -9.31,4.9 -1.85,-19.11 0.13,-0.42 4.46,-6.83 5.97,-7.93l8.43 -2.98c0.3,-0.07 1.44,0.04 2.05,-0.27 -13.9,-8.53 -8.14,-1.26 -22.99,-5.84 -3.77,-32.19 16.48,-31.18 9.7,-51.03 -11.27,-33 -39.39,-58.96 -58,-83.99 -11.49,-15.44 -7.84,-19.57 -21.77,-32.2l-24.45 -34.13c-16.92,-33.59 -34.59,-34.49 -47.11,-63.8 8.29,-17.14 18.48,-24.43 37.48,-32.19 29.41,-12.01 16.08,-18.74 41.55,-33.25 21.61,-12.31 24.01,-16.94 40.37,-30.28l38.43 -24.26c0.82,-0.55 2.03,-1.25 2.81,-1.74l6 -3.34c-0.39,-15.06 -4.64,-14.01 1.34,-23.43 0.51,-0.81 1.49,-1.9 2.03,-2.66l4.91 -5.85c-8.16,-7.93 -12.19,-30.21 -14.62,-38.93 35.21,-46.4 4.29,-25.35 -12.51,-36.78 -23.67,-16.11 -17.44,-20.7 -57.91,-13.79 -19.67,3.36 -29.07,12.38 -47.29,19.72 -16.69,6.72 -59.28,38.47 -75.38,49.71 -27.22,19.01 -44.31,39.58 -72.99,54.99l-76.67 -55.64c-7.14,-4.89 -13.74,-8.74 -20.06,-13.23 -9.08,-6.45 -11.2,-10.58 -18.34,-15.02 -17.8,-11.07 -23.76,-6.09 -43.19,-23.36 -21.23,-18.89 -20.24,-10.01 -43.21,-23.51 -15.74,-9.25 -20.17,-17.37 -38.84,-27.89 -22.4,-12.62 -26.94,0.22 -46.9,-20.11 -18.23,-18.58 -27.95,-12.01 -37.58,8.54zm-538.23 288.1c8.5,-7.51 15.3,-6 22.22,-15.05 9.31,-12.16 27.52,-69.09 33.83,-87.42 20.45,-59.47 17.6,-35.11 25.65,-57.42 11.16,-30.95 27.19,-49.61 47.62,-73.49l17.8 -23.74c37.18,-38.37 37.24,-50.2 58.62,-62.15 20.79,-11.63 4.51,-7.52 45.9,-33.58 17.78,-11.2 25.12,-24.45 44.02,-34.44 61.98,-32.75 121.93,-69.15 196.47,-82.76 21.92,-4.01 51.4,-10.72 71.47,-14.1 22.35,-3.76 49.2,-1.02 70.85,-8.09 30.22,-9.86 37.07,-6.03 69.47,-8.31 58.53,-4.11 22.99,11.24 59.04,-4.41 19.84,8.39 -2.04,6.08 21.7,10.87 26.8,5.41 54.77,1.94 78.49,2.71 26.47,0.86 40.88,21.46 91.98,29.21 17.51,2.66 36.35,5.23 49.64,12.71 13.04,7.34 17.92,16.13 34.51,22.35 28.13,10.54 43.7,7.4 66.57,25.61 12.4,9.88 32.64,10.56 45.86,17.55 10.85,5.75 6.23,6.32 15.84,12.94 20.43,14.08 14.36,1.28 35.07,23.12l68.81 60.81c24.2,30.61 40.77,37.01 54.91,57.08 6.51,9.23 7.76,8.25 13.06,16.03 9.05,13.28 2.54,7.71 8.58,20.43 7.19,15.13 17.46,15.5 21.67,35.83 18.36,88.44 30.52,58.49 33.98,87.48l4.33 29.25c5.66,19.25 1.83,6.14 1.57,20.91 -0.62,35.17 16.49,2.21 18.01,95.95 0.92,56.52 7.65,51 -2.22,102.76 -2.67,13.99 -10.6,23.31 -15.57,43.07l-16.77 45.55c-8.36,25.29 -4.8,19.87 -18.32,40.21 -9.26,13.94 -3.37,10.43 -8.74,24.31 -11.15,28.86 -35.46,51.5 -53.44,76.28l-3.76 4.6c-3.43,3.67 -1.9,1.5 -6.67,5.69 -10.17,8.92 -19.19,19.18 -27.46,30.7 -6.87,9.58 -5.18,11.35 -11.32,18.02 -8.44,9.16 -9.99,5.78 -18.13,11.22 -19.04,12.73 -7.06,13.3 -31.91,26.33 -16.73,8.78 -19.31,19.52 -33.69,28.91 -36.02,23.49 -78.7,43.42 -121.2,57.78 -44.45,15.03 -97.16,31.49 -145.55,36.04 -17.17,1.62 -40.67,0.58 -57.16,3.84l-84.43 5.98c-24.54,-1.41 -7.29,-4.09 -21.34,-4.69 -19.04,-0.8 1.1,9.34 -21.26,1.91 -8.23,-2.74 2.69,-3.69 -19.86,-8.02 -17.46,-3.35 -36.26,-5.31 -52.07,-4.3 -39.26,2.52 -34.6,-8.44 -67.07,-18.95 -7.88,-2.55 -16.05,-4.48 -22.84,-6.34 -20.67,-5.68 -52.57,-5.56 -70.5,-20l-9.14 -9.32c-24.1,-14.06 -65.58,-15.89 -88.43,-31.78 -17.86,-12.41 -29.47,-9.33 -46.4,-16.98l-75.09 -45.32c-31.12,-19.57 -70.81,-61.28 -98.09,-76.82 -14.61,-8.33 -20.05,-17.7 -33.24,-29.26l-46.13 -67.42c-17.03,-48.88 -41.61,-53.85 -44.05,-74.68 -3.49,-29.9 -8.26,-21.23 -10.28,-38.03l-5.7 -46.96c-3.39,-18.09 -6.96,-36.16 -4.77,-53.03l-9.89 -16.36c-34.21,10.41 -22.74,-12.76 -91,25.75 0.88,22.48 9.89,35.61 16.2,45.09 16.3,24.49 19.08,75.48 33.12,108.67 19.04,45 -1.39,13.68 37.15,83.51 28.29,51.26 43.21,77.38 92.91,111.64 18.89,13.02 4.14,4.73 17.85,19.67 4.48,4.88 14.75,12.08 23.53,17.75 14.16,9.17 13.93,5.56 17.89,19.16l11.59 6.1c0.8,0.46 1.91,1.07 2.71,1.55 16.79,10.06 19.58,17.54 51.61,35.25 27.81,15.37 37.51,29.08 66.47,42.06 39.98,17.92 106.42,52.24 157.91,62.84 42.17,8.68 96.21,56.54 257.84,67.14 61.19,4.01 188.04,2.96 247.23,-11.7l84.15 -24.31c56.13,-10.03 143.11,-52.15 187.76,-87.09 9.82,-7.68 21.53,-13.65 33.03,-21.26l44.9 -38.34c26.25,-27.75 33.81,-27.67 66.45,-71.2 10.65,-14.2 10.26,-22.66 24.02,-34.85 4.68,-8.46 5.54,-7.39 11.28,-17.47l46.11 -87.51c13.84,-34.36 10.59,-44.17 16.76,-57.95 2.95,-6.59 5.56,-8.82 8.48,-16.86 7.02,-19.35 -1.4,-20.77 5.58,-39.99 6.13,-16.88 2.81,0.87 9.19,-20.17l5.72 -57.44c-3.64,-16.12 -7.17,-2.18 -7.86,-17.76 -0.33,-7.38 2.53,-4.43 4.41,-17.56 1.39,-9.69 -0.46,-34.74 -0.82,-44.23 -1.68,-44.1 -11.43,-90.44 -18.25,-131.06 -14.45,-86.11 -15.68,-49.13 -27.13,-80.41 -48.86,-133.42 -71.39,-120.95 -92.05,-150.46 -24.85,-35.5 -16.63,-18.85 -51.87,-56.59 -56,-59.97 -128.88,-102.71 -205.92,-135.69 -51.36,-21.99 -50.55,-16.48 -81.15,-27.57 -25.28,-9.17 -40.41,-22.34 -73.09,-31.76 -51.58,-14.87 -128.38,-27.53 -186.31,-29.36 -34.73,-1.1 -69.9,2.12 -103.66,4.08 -30.71,1.79 -64.25,4.51 -95.9,9.76 -35.32,5.86 -54.62,12.11 -86.22,21.03l-159.35 53.25c-105.37,46.71 -227.85,145.08 -290.03,243.6 -19.46,30.83 -35.17,67.35 -37.34,70.82 -22.26,35.58 -19.31,40.18 -26.39,70.54 -4.63,19.89 -11.84,17.83 -15.14,37.79 -2.23,13.49 1.35,7.9 -0.84,21.67 -6.06,38.02 -12.5,-2.83 2.52,40.26 2.47,7.07 -0.14,2.36 2.18,6.57 2.62,4.75 -2.43,0.1 4.22,5.19 3.62,2.77 0.66,1.68 7.67,3.97 11.94,3.9 13.98,2.78 26.88,3.08zm-328.12 125.34c-25.08,-9.09 -30.17,-18.7 -63.82,-25.82l-182.1 -67.21c-28.97,-7.74 -43.32,-11.49 -66.28,-21.5 -15.17,-6.61 -13.93,-9.12 -27.31,-14.35 -11.13,-4.35 -18.53,-5.37 -30.97,-10.55 -42.49,-17.66 -86.44,-26.07 -122.86,-44.05 5.28,-27.94 5.97,-46.35 5.77,-67.44 -0.14,-14.55 4.15,-13.17 5.82,-32.75 1.44,-16.89 -1.49,-21.65 -1.14,-33.09l0.06 -33.7c0,-9.95 4.94,-19.96 6,-29.86 2.7,-25.13 3.42,-46.66 5.05,-69.65 1.62,-22.72 11.01,-43.69 10.47,-60.99 -0.6,-19.4 -7.21,-11.55 -3.45,-24.64 2.61,-9.12 11.64,-11.71 15.07,-21.23l11.22 -68.88c2.4,-32.51 -2.05,-5.66 8.63,-28.44 2.33,-4.97 1.06,-0.2 3.38,-9.45l37.71 -123.5c4.51,-16.59 -2.69,-4.08 7.2,-23 16.05,-30.69 -5.13,-5.64 20.73,-37.39 12.95,-15.89 9.48,-38.04 21.61,-53.59 9.54,-12.22 8.54,-3.79 17.26,-24.11 5.84,-13.63 8.26,-16.06 12.41,-25.27l12.85 -25.11c6.88,-10.51 5.64,-13.63 12.64,-24.46 37.8,-58.46 12.68,-24.27 26.35,-53.12 9.48,-20.03 27.29,-15.67 31.11,-43.32 9.56,-19.51 6.45,-2.7 8.55,-50.53 0.8,-18.21 -5.07,-17.09 -3.38,-61.81 39.44,-3.09 73.92,3.09 101.99,-22.75 27.38,-25.22 7.78,-55.78 11.25,-79.8l5.97 -20.64c1.12,-9.55 80.16,-7.76 92.51,-36 6.11,-13.96 -0.5,-32.74 7.07,-55.26 22.15,-65.92 13.23,-53.89 80.7,-40.39 51.39,10.28 91.03,3.07 108.05,-50.46 6.72,-21.14 14.24,-47.69 25.29,-63.41 52.07,10.12 55.3,35.48 111.15,4.33 26.64,-14.87 15.36,-16.54 25.15,-45.39 7.54,-22.22 15.51,-30.63 21.05,-49.6 22.31,5.52 25.61,15.33 58.39,21.6 32.47,6.22 88.27,5.21 113.71,-25.55 15.46,-18.68 -8.36,2.09 20.86,-37.39 21.97,-29.69 20.46,-21.28 60.75,-6.71 7.58,2.74 53.35,8.4 65.39,9.11 41.04,2.39 75.25,-60.73 82.2,-67.06 0.85,0.81 1.83,1.99 2.38,2.59 10.37,11.33 26.76,26.96 41.58,31.13 24.16,6.79 78.96,-44.66 89.17,-56.93 11.11,-13.37 22.94,-33.77 37.25,-36.73 26.95,30.62 -19.34,13.29 19.85,46.79 38.14,32.6 16.24,26.99 35.59,39.41 36.1,23.16 36.92,6.94 58.51,-2.68 87.7,-39.06 84.61,-98.68 138.03,-67.6 21.07,12.26 3.46,5.47 14.17,22.2 6.26,9.77 9.47,7.08 20.85,16.88 0.67,0.58 1.52,1.49 2.17,2.08 13.16,11.92 5.14,7.4 21.86,15 21.77,9.9 34.43,22.5 54.53,13.58 22.32,-9.9 39.34,-14.22 50.57,-29.08 8.74,-11.57 14.23,-45.48 40.16,-29.51 15.29,9.42 3.53,9.73 16.3,25.78 42.91,53.94 66.72,36.69 99.51,17.92 28.42,-16.25 56.36,-30.79 77.36,-15.95 27.78,19.63 6.15,25.68 25.95,44.95 47.07,45.82 72.33,26.97 107.86,7.42 8.19,-4.51 16.75,-8.69 23.94,-13.81 10.38,-7.38 9.19,-9.8 23,-13.56 2.38,6.09 -0.75,17.82 11.81,28.41 17.36,14.64 11.5,-5.91 17.83,22.32 5.43,24.2 -3.42,-1.26 28.38,31.9l16.04 13.25c42.77,43.21 54.33,9.65 138.55,-9.74 28.4,24.12 21.29,66.26 66.36,83.56l-1.94 23.8c16.62,3.72 23.3,15.55 36.29,17.41 22.15,3.18 78.87,-20.45 131.71,-24.56 3.3,31.63 20.31,82.24 48.19,94.73 30.11,13.5 73.64,-20.9 111.29,-20.62l5.62 30.14c0.65,14.47 -0.43,19.79 2.27,34.04 15.06,79.44 18.78,73.76 54.14,83.57 52.13,14.46 2.79,10.32 77.36,6.68 -3.33,51.31 -4.13,127.45 56.85,136.5 46.18,6.85 40.44,-3.99 45.57,-6.5 15.19,5.86 -0.64,7.96 37.34,8.03 -6.55,24.28 -12.39,37.31 -21.68,57.63 -25.63,56.01 -9.87,32.76 -35.97,42.88 0.53,39.72 7.34,22.81 18.5,43.25 9.26,16.96 -6.33,3.71 25.9,31.86l-0.24 17.79 3.91 4.46 4.18 4.02 7.16 3.64c35.03,11.74 -6.76,10.79 44.88,48.58l7.14 5.44c0.63,0.59 1.48,1.48 2.07,2.09 14.22,14.89 37.49,48.15 53.69,58.63 24.5,15.84 3.96,7.26 28.33,26.32 0.68,0.53 1.82,1.09 2.48,1.63 16.02,13.12 7.28,17.96 20.85,33.21 6.95,7.81 11,8.8 19.26,18.34 15.27,17.66 7.82,15.95 13.4,28.37l27.42 35.12c26.79,28.99 12.91,25.93 39.64,61.02 -26.71,1.54 -61.97,-3.23 -94.08,-1.7 -54.59,2.61 -188.77,28.3 -241.37,45.19l-170.07 71.27c-64.81,34.82 -85.31,57.26 -138.64,99.48 -13.07,10.35 -13.96,13.96 -24.83,25.21 -39.75,41.17 -70.6,73 -100.84,136.49 -21.07,44.24 -40.24,97.02 -48.56,144.98 -2.78,16.08 -8.53,64.92 -1.57,80.4l7.56 13.66c1.93,2.63 10,10.06 13.54,12.52 12.36,8.61 12.57,7.87 30.01,8.24 4.06,-4.93 -8.05,-4.54 11.46,-5 -2.12,-8.26 -3.09,-6.14 5.29,-3.66l4.83 -3.73c0.29,-19.37 13.96,-91.73 22.13,-110.58 9.36,-21.6 -2.71,-32.1 36.8,-92.43l32.25 -51.14c34.44,-48.03 4.81,-24.53 37.53,-50.41 14.69,-11.62 7.15,-12.21 18.8,-22.8 7.12,-6.47 14.22,-8.87 23.16,-18.3 38.12,-40.2 18.7,-26.86 72.32,-57.43 42.1,-24.01 56.03,-43.36 138.52,-73.37 19.42,-7.06 210.85,-57.02 242.25,-56.17 42,1.13 17.68,0.14 31.73,-2.97 20.27,-4.48 7.44,0.05 16.55,2.93 53.81,17 67.84,-15.82 128.11,10.34 21.06,9.14 51.38,8.93 75.28,12.27 37.22,5.2 30.84,15.37 61.37,24.9 12.11,3.78 23.19,7.43 34.66,12l21.44 11.69c19.66,14.83 18.51,7.96 32.66,17.78l22.46 19.13c47.59,32.68 40.43,38.03 52.83,55.3l68.43 81.86c25.83,38.08 39.29,64.33 54.08,108.33 3.33,9.9 6.78,44.62 11.5,63.99 3.48,14.27 8.68,22.8 7.51,33.96 -2.27,21.56 -4.36,45.74 0.82,70.72 2.98,14.36 7.1,5.66 4.99,29.53 -0.72,8.11 -8.42,47.66 -7.3,67.63 1.31,23.22 8.37,10.51 -2.66,30.29 -7.05,12.65 -10.28,15.32 -11.15,28.53 0,0 4.04,12.95 -5.72,28.59 -17.59,28.17 -3.96,-6.46 -16.93,42.78 -1.06,3.99 -4.21,12.25 -4.26,12.34 -4.68,8.69 -7.77,6.72 -17.77,19.04 8.8,28.68 2.18,-6.06 7,11.97 -10.21,6.59 -22.15,17.17 -28.83,29.55 -11.67,21.64 -54.45,71.01 -72.85,93.88 -9.39,11.67 -19.65,20.23 -26.46,31.9 -10.97,18.76 -7.95,16.29 -25.94,28.25 -15.74,10.47 -16.09,11.57 -29.41,24.65 -25.73,25.25 -58.46,27.36 -76.21,36.44 -37.35,19.11 -84.02,31.37 -126.13,40.21 -61.67,12.94 -95.92,16.39 -149.32,8.25 -6.12,-0.93 -11.71,1.86 -16.57,1.04 -13.8,-2.3 4.44,-0.31 -14.84,-6.73 -39.29,-13.1 -52.78,5 -87.67,-17.64 -33.59,-21.79 -58.61,-7.97 -92.04,-36.94 -6.9,-5.98 0.14,-1.12 -7.12,-5.56 -5.4,-3.31 -15.76,-6.85 -20.53,-8.58 -59.97,-21.63 -8.25,0.73 -75.18,-33.57 -43.94,-22.51 -32.95,-35.47 -72.79,-68.68 -10.85,-9.05 -4.32,-4.01 -11.88,-13.3 -16.83,-20.71 -35.85,-37.71 -54.93,-57.2 -48.6,-49.64 -38.69,-21.11 -48.79,-44.73l-29.59 -35.78c-14.74,-14.26 -20.36,-4.25 -31.91,-19.9l-0.76 -3.17 -0.17 -14.55c-7.57,1.6 -6.19,3.15 -4.49,-4.35 -6.64,1.41 -5.1,2.58 -3.87,-4.22 -6.82,1.21 -6.01,2.98 -4.35,-3.43 -11.77,-0.28 -7.57,3.16 -7.79,-4.87 -8.96,-4.08 -1.58,1.25 -8.19,-4.71 -8.16,-7.35 -0.53,0.4 -4.51,-7.81 -7.22,1.26 -6.16,3.01 -4.54,-3.9 -7.31,1.62 -6.25,3.28 -4.37,-3.82 -8.14,2.14 -6.76,3.7 -4.5,-4.38 -7.31,-0.4 -5.13,5.47 -5.88,-5.88 -6.43,-0.02 -4.76,1.35 -3.31,-5.4 -6.63,1.16 -5.05,2.48 -4.4,-4.32 -6.64,1.38 -5.48,2.93 -4.43,-3.57 -6.68,1.09 -5.29,2.48 -4.17,-4.2 -6.8,1.13 -5.48,2.76 -4.91,-3.85l-6.82 -5.67 -6.49 -1.63c-11.73,-4.47 -7.6,9.7 -6.82,-13.46 -7.68,1.72 -5.91,3.02 -4.33,-4.85 -7.27,2.54 -6.52,4.5 -4.77,-2.8 -7.51,1.21 -6.26,3.03 -5,-4.17 -7.1,2.28 -5.53,3.27 -3.69,-4.03 -6.66,0.77 -5,1.96 -3.43,-4.88 -8.51,1.93 -8.16,4.29 -4.81,-3.64 -34.97,1.38 -10.07,-8.05 -49.38,-42.14 -88.02,-76.32 -72.75,-44.14 -81.07,-111.59 -6.37,-51.71 -30.9,-126.55 -56.64,-172.08l-36.35 -59.8c-7.67,-14.75 -10.22,-9.18 -22.86,-14.64 -9.44,-4.08 -3.41,-6.04 -16.17,-6.22 -14.19,-0.2 -28.68,3.92 -46.83,14.47 5.46,11.77 5.79,25.06 9.92,40.81l25.78 49.19c3.59,6.43 0.22,-0.3 4.76,7.82 8.91,15.93 20.93,21.08 27.22,35.14 11.87,26.53 8.74,44.58 20.17,71.5 11.39,26.82 14.26,53.48 17.8,83.24 9.2,77.25 6,54.05 53.32,87.49 15.86,11.2 32.85,37.05 50.62,49.82 32.67,23.49 51.46,37.83 77.96,68.14 7.55,8.63 15.84,17 25.25,24.43 10.91,8.61 65.68,76.32 99.09,100.9 22.01,16.2 9.67,9.58 23.05,27.26 12.3,16.26 16.73,7.23 27.11,22.74 5,7.47 1.13,5.37 9.39,15.72 9.76,12.23 105.24,97.56 136.4,139.05l36.6 38.48c19.67,24.98 38.73,35.51 56.39,64.19 15.45,25.09 43.35,41.77 60.69,64.7 10.4,13.76 19.15,31.98 32.94,41.81 18.47,13.16 11.29,11.89 22.26,27.73 9.42,13.61 10.91,2.28 23.67,26.03 12.96,24.1 29.21,35.02 45.11,55.39 7.1,9.09 13.4,19.18 20.49,29.46 20.68,29.98 31.81,24.88 45.3,55.78l101.37 143.56c8.94,13.14 13.45,14.36 22.31,27.57l39.65 60.61c8.94,11.03 17.53,14.77 23.54,27.13 9.66,19.85 4.41,13.15 17.42,31.81 6.95,9.96 10.66,20.11 18.24,31.72 7.71,11.79 11.8,12.59 20.53,25.62 7.54,11.25 9.28,22.27 18.57,31.46 22.29,22.05 6.6,-1.18 18.12,32.33 6.84,19.9 13.01,18.14 20.63,28.83 10.2,14.3 2.34,15.6 17.65,32.5 17.01,18.76 5.03,12.06 17.35,32.46 6.6,10.92 14.51,17.85 20.8,28.97 7.16,12.68 10.18,21.49 16.16,34.35 8.64,18.54 12.23,13.33 18.93,26.48 7.52,14.75 2.96,16.15 15.43,35.04l26.9 48.45c4.09,10.35 0.98,6.51 7.17,17.9 7.09,13.06 11.7,14.79 19.12,30.24l44.65 105.75c9.78,23.71 11.57,8.41 19.58,30.43 5.75,15.82 1.83,21.48 11.54,38.33 8.5,14.75 9.26,14.05 16.35,33.77 4.15,11.56 10,23.55 15.05,35.13 12.05,27.57 52.64,174.6 50.1,188.99 -5.29,29.87 -1.85,14.67 -0.38,35.25 1.98,27.68 -11.46,33.87 -17.73,54.73 -27.11,90.17 -207.09,-30.47 -257.38,-49.22 -19.44,-7.25 -19.11,-1.93 -35.95,-14.48 -28.49,-21.25 -71.78,-30.66 -100.09,-49.95 -14.18,-9.67 -13.2,-15.07 -28.76,-21.03 -15.54,-5.94 -18.37,-2.98 -32.75,-13.12 -37.33,-26.3 -23.66,-15.22 -58.16,-33.41l-127.81 -72.77c-12.45,-7.22 -20.47,-10.92 -31.99,-17.98l-98.32 -51.65c-13,-7.83 -16.96,-13.27 -30.28,-19.69 -43.33,-20.91 -83.16,-53.38 -127.7,-72.3 -28.58,-12.14 -24.28,-18.28 -61.61,-34.35 -17.88,-7.69 -15.13,-11.22 -29.58,-20.59 -9.21,-5.97 -23.11,-10.8 -33.06,-16.89 -18.79,-11.5 -6.14,-13.12 -27.22,-22.81 -35.38,-16.26 -35.38,-25.44 -60.73,-39.21 -35.82,-19.44 -77.26,-38.1 -105.66,-65.61 -11.08,-10.72 -18.81,-9.37 -29.38,-20.46 -18.95,-19.87 -50.05,-36.22 -76.29,-48.85 -22.21,-10.69 -38.58,-37.58 -65.46,-21.99 -12.9,7.48 -26.68,6.18 -29.49,20.11l-3.65 34.62c26.76,7.35 14.43,6.98 28.78,24.54 13.26,16.23 65.67,37.03 84.79,53.6 5.27,4.57 2.63,2.3 6.82,8.29 -74.7,-4.08 -141.99,-0.39 -212.25,-7.62 -17.93,-1.85 -49.84,-2.63 -69.16,-1.54 -21.63,1.22 -48.23,1.34 -70.56,3.98 -36.38,4.3 -19.88,1.95 -52.88,-10.84 -45.77,-17.75 -138.43,-32.06 -189,-5.65 -20.5,10.7 -31.3,9.76 -51.64,15.67 -16.76,4.87 -38.44,21.85 -49.25,23.11 -11.98,1.4 -46.24,-5.01 -66,-4.3l-131.12 18.1c-53.47,13.35 -53.77,26.75 -89.74,55.15 -19.02,15.01 -85.39,30.52 -108.99,41.03 -32.55,14.5 -61.24,40.21 -91.61,54.71 -10.04,4.79 -14.84,6.39 -24.15,13.15l-19.37 17.97c-9.39,10.74 -117.96,84.12 -123.61,93.58 -7.95,13.3 3.09,78.9 47.65,60.57 32.42,-13.33 18.84,-15.83 42.32,-33.18 34.04,-25.15 136.95,-107.24 173.51,-117.47 20.05,-5.61 35.59,-13.58 53.04,-17.57 -15.15,80.28 2.09,36.68 -5.89,67.53 -1.98,7.66 -4.69,8.6 -7.3,20.81 -11.27,52.8 -7.95,101.93 2.03,153.02 5.3,27.13 14.74,7.08 11.68,43.89 -2.12,25.55 4.66,24.46 17.34,35.62 15.26,13.44 6.9,21.79 14.67,35.29 7.66,13.29 18.26,22.46 31.74,30.64 24.08,14.61 16.08,14.85 30.68,27.9 42.53,38.04 122.74,43.1 173.56,50.39 63.31,9.08 46.89,0.94 100.38,-5.37 18.36,-2.16 26.84,3.42 50.29,-4.59 14.45,-4.94 25.02,-14.55 38.3,-18.87 22.03,-7.18 24.38,-3.65 44.09,-15.22 59.2,-34.74 131.72,-142.16 130.64,-209.19 -0.77,-47.75 6.14,-12.12 9.05,-45.98 1.27,-14.72 -1.92,-17.77 -1.78,-25.12 0.22,-11.55 7.96,-21.08 14.47,-64.67l42.26 -131.27c11.36,-22.44 -11.25,-16.89 4.32,-45.01 -3.57,-11.52 -7.65,-6.22 -11.66,-17.42 21.92,-16.74 76.67,-5.73 102.21,-7.34 5.93,-0.37 6.7,-0.78 12.52,0.68 12,2.98 2.8,5.61 26.92,6.61 10.69,0.45 21.92,-0.46 32.33,-1.23l47.48 -5.77c24.83,-3.08 33.35,8.95 53.55,11.58 20.26,2.64 45.08,1.72 65.92,3.14 25.18,1.72 34.55,4.4 61.54,-0.54 22.12,-4.05 30.25,7.54 51.91,6.53 20.4,-0.95 31.69,-13 47.76,2.21 20.41,19.33 38.53,24.72 59.18,40.75 18.48,14.34 41.53,22.22 61.44,34.25 26.38,15.94 48.03,34.94 80.27,53.31 26.86,15.31 53.28,25.23 76.3,42.93 8.95,3.31 3.37,1.71 8.5,5.24l91.72 54.69c11.07,6 16.82,6.96 28.04,13.69l124.14 67.47c9.75,5.01 15.96,9.8 23.45,14.16l76.71 39.91c21.17,9.46 32.37,13.17 50.09,24.87l199.64 109.12c33.82,20.03 73.28,30.09 107.27,46.67 38.27,18.68 69.11,39.28 116.31,37.77 5.61,-15.05 -1.8,10.55 -2.7,-4.87l10.3 -2.71c45.2,-2.27 40.13,14.51 96.6,-21.3 24.1,-15.27 23.51,-18.09 35.41,-39.13 41.3,-72.99 27.1,-119.36 19.6,-194.36 -3.77,-37.74 -21.2,-92.21 -33.49,-129.56 -6.98,-21.2 -5.86,-7.18 -12.95,-28.45l-32.75 -92.65c-16.33,-47.87 -50.24,-123.62 -78.13,-168.06 -13.26,-21.12 -11.78,-35.04 -35.86,-77.16 -7.87,-13.77 -14.21,-12.57 -19.35,-21.16 -8.77,-14.67 5.6,-4.16 -6.48,-27.19 -7.44,-14.19 -6.88,-4.35 -12.33,-26.56 42.7,-1.59 125.12,-19.21 165.99,-31.66 51.17,-15.58 25.31,-13.18 87.83,-25.28l200.83 -69.45 77.48 -39.19c93.43,-42.64 121.78,-78.04 192.46,-116.35 18.8,-10.18 22.75,-22.71 40.09,-34.94 19.38,-13.67 23.72,-23.42 38.73,-40.14l78.7 -75.77 84.46 -107.34c15.08,-13.91 50.48,-70.84 63.11,-91l29.11 -50.23c12.28,-18.28 4.71,-11.83 8.08,-24.5 2.35,-8.79 -0.31,-2.77 7.17,-10.22 9,-8.95 7.85,-18.99 16.73,-28.68l9.04 -11.96c16.29,-29.48 26.14,-63.35 39.96,-93.68 18.87,-41.42 0.78,-31.96 18.08,-52.43 22.53,-26.66 10.03,-32.28 12.71,-55.3 2.31,-19.88 10.17,-15.39 16.63,-24.15l32.91 -121.34c2.33,-12.42 2.82,-18.8 6.9,-30.14 15.41,-42.81 12.6,-24.3 4.02,-54.67 0.7,-0.72 1.89,-1.49 2.33,-1.91 21.06,-20.21 26.89,-114.58 32.08,-143.07 4.57,-25.03 -1.57,-50.38 -13.9,-71.78 -7.82,-13.59 -27,-13.72 -39.56,-26.99 -47.57,-50.22 -90.3,-31.24 -157.96,-41.94 -32.69,-5.17 -57.86,1.65 -82.22,-0.67 -39.52,-3.76 -132.93,-0.65 -172.71,5.31 -20.18,3.02 -56.7,9.2 -75.63,8.66 -15.73,-0.45 -21.87,-1.76 -38.56,0.87 -23.13,3.63 -15.65,8.32 -37.61,8.82l-74.98 4.23c-31.3,1.52 -56.4,13.44 -78.93,13.01 -29.65,-0.57 -45.54,6.33 -79.61,7.84 -28.79,1.29 -135.6,33.38 -150.55,16.68l-6.94 -40.51c22.73,-16.33 19.49,-11.09 18.62,-44.3 -1.48,-56.48 -6.23,-48.88 -12.25,-89.63 -1.87,-12.68 -4.52,-14.38 -8.1,-24.68l-31.37 -76.92c-4.31,-14.34 -1.57,-10.81 -8.13,-25.28 -10.97,-24.21 -20.77,-24 -28.66,-42.12 -14.38,-32.98 -71.34,-88.7 -92.87,-119.87 -28.96,-41.94 -76.82,-64.98 -119.91,-92.58 -15.52,-9.94 -23.97,-22.38 -40.8,-30.11 -10.82,-4.96 -18.37,-4.74 -28.23,-9.48 -15.27,-7.34 -20.94,-26.05 -121.67,-52.4l-2.48 -6.82c-0.35,-0.96 -0.79,-2.24 -1.18,-3.28l-10.49 -22.49c-6.62,-11.97 -10.46,-18.72 -17.63,-28.5 -6.67,-9.09 -14.75,-17.39 -20.93,-24.65 -10.51,-12.35 -6.59,-12.64 -14.98,-26.75 -10.91,-18.37 -27.75,-33.82 -40.1,-51.69 -41.56,-60.1 -149.79,-183.63 -206.98,-233.97 10.03,-31.12 18.3,-57.11 30.76,-90.24 7.72,-20.53 9.65,-21.04 10.75,-51.96 1.52,-42.82 13.89,-50.23 -27.71,-68.8 -46.19,-20.61 -72.44,-2.97 -113.63,-15.45l-7.29 -3.23c-9.22,-28.82 9.5,-16.93 5.23,-48.1 -3.57,-26.08 2.58,-25.88 0.12,-51.08l-24.15 -17.18c-14.75,-15.2 -56.49,-17.72 -77.75,-15.49 -16.75,1.75 -18.96,6.93 -38.1,6.71 1.2,-33.96 1.03,-121.29 -31.58,-139.76 -47.86,-27.11 -84.49,-1.95 -134.71,5.17 1.03,-27.11 9.08,-51.32 3.16,-86.3l-38.74 -24.32c-29.95,-8.1 -109.71,28.86 -153.1,28.86 -63.16,-75.68 -51.44,-121.27 -95.82,-125.46 -15.03,-1.41 -54.65,7.08 -69.86,17.8 -0.71,0.5 -1.61,1.34 -2.29,1.87 -0.68,0.53 -1.53,1.42 -2.21,1.96 -0.67,0.54 -1.5,1.45 -2.18,1.99 -5.82,4.56 0.09,1.45 -7.26,5.24 -7.26,3.74 -36.51,9.19 -45.84,8.58 -33.8,-2.22 -13.07,-12.13 -7.79,-21.3 -15.11,-11.14 -30.32,-30.81 -37.29,-45.9 -15.92,-34.43 -4.36,-28.41 -39.38,-43.79 -41.61,-18.28 -57.01,9.78 -90.21,23.56 -11.03,4.57 -22.21,8.07 -33.46,10.07 -7.63,-6.74 -31.01,-36.47 -37.88,-47.21 -12.65,-19.76 -0.6,-7.4 -22.55,-19.45 -9.76,-5.36 -12.02,-10.83 -24.22,-13.04 -19,-3.43 -85.66,36.14 -114.95,39.94 -23.14,-27.99 -51.96,-79.85 -95.46,-70.68 -27.8,5.86 -61.5,31.73 -72.3,54 -11.04,22.75 -3.84,5.49 -15.85,21.71 -12.88,-7 -19.26,-13.73 -29.59,-25.38 -48.26,-54.37 -97.67,-79.3 -158.84,-25.56 -24.3,21.35 -40.98,39.72 -74.57,51.8 -9.13,-8.68 -16.63,-17.99 -21,-30.86 -13.16,-38.8 -18.56,-44.84 -43.49,-55.75 -11.72,-5.13 -16.8,-11.49 -32.66,-7.42 -15.94,4.09 -37.89,15.49 -43.68,26.73l-59.45 57.3c-8.82,-5.6 -8.61,-7.69 -19.1,-13.69 -17.81,-10.18 -25.52,-18.31 -46.65,-10.42l-6.08 2.48c-28.55,10.34 22.24,-7.07 -6.33,2.11 -29.25,9.41 -27.03,16.87 -46.99,36.21 -8.68,8.4 -7.99,7.47 -15.93,17.81 -6.81,8.87 -8.92,8.84 -14.62,17.6 -52.56,-6.28 -79.39,-38.41 -129.3,-19.82 -63.36,23.62 -44.99,88.27 -92.9,84.29 -0.23,-0.02 -17.05,-2.87 -17.91,-3.05 -12.98,-2.71 -20.46,-5.16 -32.72,-9.54 -34.03,-12.16 -21.6,-27.64 -62.05,-6.99 -24.77,12.64 -37.32,12.73 -48.69,39.37 -8.63,20.21 -24.25,45.33 -12.54,58.44 -47.64,7.94 -70.36,-54.09 -128.71,-8.05 -14.56,11.49 -20.8,35.56 -26.81,57.1 -9.09,32.58 7.38,27.05 -22.1,52.99 -33.03,12.56 -161.32,-59.76 -173.58,58.92l-14.36 66.95c-20.8,-0.5 -37.72,-6.85 -56.31,0.34 -44.15,17.08 -41.05,31.18 -40.9,75.07 0.06,18.59 2.4,7.89 3.47,22.5 0.34,4.55 -1.13,20.37 -1.49,25.78 -98.01,5.4 -126.91,7.97 -120.38,91.99 2.46,31.64 12.35,40.88 8.92,55.33 -4.45,18.74 -47.65,59.06 -54.65,91.51 -3.9,18.12 -0.98,17.28 -10.12,26.41 -5.98,5.98 3.5,-1.86 -3.36,2.65 -20.74,13.66 -11.6,16.79 -25.76,40.08 -31.95,52.55 -46.67,99.92 -70.93,150.05 -9.89,20.44 -5.55,30.68 -13.63,48.12 -34.42,74.38 -20.65,96.1 -28.8,109.2 -5.62,9.04 -11.02,10.2 -14.16,24.47 -4.89,22.3 1.58,13.04 0.1,26.65 -2.52,23.25 -18.46,18 -4.93,46.8 -15.34,10.9 -19.91,17.11 -18.15,40.18 1.97,25.99 0.28,6.7 -3.04,24.87 -4.63,25.29 2.89,-6.84 1.31,17.21 -0.36,5.58 -2.85,10.55 -4.15,23.07 -1.3,12.55 -0.62,6.03 -4.6,20 -11,38.57 -5.83,85.98 -11.51,122.23l-4.12 41.74c-2.47,25.6 1.74,13.2 3.57,25.28l-9.65 63.54 -82.69 -24.41c-13.46,-5.1 -29.2,-6.77 -42.78,-11.53 -93.93,-32.93 -192.51,-56.78 -289.93,-80.99 -54.35,-13.51 -115.88,-22.37 -171.84,-40.76 -15.79,-5.18 -29.14,-3.23 -46.01,-8.32 -14.27,-4.32 -23.81,-7.13 -39.6,-10.24 -35.76,-7.04 -56.79,-11.22 -94.22,-14.27 -17.53,-1.43 -25.68,-8.49 -42.63,-11.23 -19.26,-3.12 -24.65,-1.85 -43.54,-6.53l-284.82 -35.48c-34.27,-2.69 -68.34,-1.76 -100.65,-3.5 -19.9,-1.07 -33.33,2.66 -49.38,2.33 -51.18,-1.06 -82.87,10.71 -132,18.46 -9.19,23.88 -19.78,67.13 -22.29,90.38 -1.81,16.67 2.82,78.79 5.21,93.21 24.11,145.66 42.83,121.75 52.54,157.03 4.59,16.65 8.21,21.56 18.73,35.44 16.48,21.74 24.06,53.36 38.49,69.76 7.79,8.86 9.64,7.16 15.58,13.96 11.35,12.99 5.62,22.2 16.59,37.49l57.14 76.31c17.53,19.4 28.79,46.21 46.52,65.87 27.23,30.23 53.94,49.82 77.68,85.03l106.65 110.12c11.7,12.6 12.87,16.71 25.71,28.52 27.25,25.09 87.9,86.14 114.02,102.81 31.43,20.07 57.74,50.9 88.79,73.73 13.2,9.7 29.33,15.72 37.74,24.81l147.05 119.74c30.81,26.15 54.88,49.68 93.89,68.74l25.8 19.77c0.53,0.71 1.13,1.82 1.68,2.52 8.69,11.1 21.79,16.53 35.66,22.98 26.5,12.31 40.66,28.93 67.23,41.11 20.45,9.37 16.87,11.24 32.58,21.61 34.74,22.94 76.62,34.63 110.82,56.18 27.69,17.44 81.33,30.5 115.83,46.57 52.44,24.43 115.98,30.97 166.86,49.82 31.19,11.56 55.63,12 87.57,20.69 55.02,14.95 239.55,33.03 293.66,30.17 -0.61,9.06 -1.12,43.49 -0.35,51.31 2.08,21.2 5.56,10.96 2.08,39.63 -3.33,27.51 3.82,16 6.37,39.97 1.6,15.03 -2.48,30.04 -1.31,41.18l19.66 124.11 24.99 70.77c4.98,17.91 -0.62,18.25 9.39,36.52 10.95,19.96 15.01,48.28 27.93,67.92 21.56,32.8 21.26,70.1 42.19,104.05 10.23,16.58 3.26,16.73 12.68,32.9 3.95,6.79 3.92,2.98 9.63,15.46 3.96,8.65 1.85,8.23 7.5,17.71l35.3 60.44c8.33,16.17 11.67,9.13 19.43,26.44 10.69,23.84 42.23,65.03 59.54,86.27 60.28,73.95 108.09,81.53 86.23,156.45l-3.98 39.6c-3.54,16.54 3.23,17.2 4.74,33.83 2.32,25.42 -5.81,8.73 -3.45,24.96 2.39,16.51 4.5,6.38 -3.85,11.78 -0.22,27.85 5.4,50.16 13.8,73.53 5.5,15.33 5.51,24.84 9.78,36.71l9.51 23.24c8.04,11.81 4.9,3.6 12.99,11.89 8.35,8.54 -0.89,1.99 9.46,11.37 18.15,16.47 68.48,32.39 94.3,31.81 4.16,7.86 -3.47,-2.16 0,7.42 23.48,3.11 37.63,-3.09 58.37,-7.61 13.17,7.79 1.24,5.39 17.71,14.5 9.72,5.38 12.91,0.59 20.16,13.7 11.11,20.09 -15.61,23.04 9.57,46.09l-19.95 43.82c-18.15,53.61 19.74,45.11 -79.36,58.56 -28.93,3.93 -32.95,9.47 -57.15,17.94 -50,17.49 -83.44,32.32 -116.09,67.21l-24.68 33.38c-5,6.51 -2.02,2.24 -8.38,8.56 -7.12,7.07 -12.24,12.11 -17.42,20.69 -9.25,15.35 -2.45,14.38 -5.7,24.28 -4.49,13.69 -15.55,14.23 -23.25,34.02l-2.37 6.06c-0.39,1.15 -1.61,4.26 -1.81,5.3 -3.88,20.37 1.45,-5.19 5.17,21.78 -18.81,9.02 -22.4,12.97 -21.42,41.83 0.34,9.94 4.42,42.96 6.98,51.57 3.06,10.3 6.71,12.58 9.48,19.46 5.67,14.12 1.45,11.95 4.83,24.03l10.59 18.48c3.5,6.86 3.77,19.48 10.83,23.4l47.5 35.3c2.64,2.38 4.83,4.07 10.28,6.58 27.22,12.54 37.68,8.71 58.02,7.55 23.02,-1.32 70.71,18.93 115.89,9.9 14.55,-2.91 0.41,1.2 11.67,-5.43 19.48,-11.48 40.63,-12.09 61.87,-21.62 14.45,-6.48 11.22,-8.89 21.82,-15.95 9.89,-6.59 13.49,-5.4 22.23,-11.05 12.54,-8.11 20.54,-20.38 37.2,-29.28 13.16,16.98 17.19,45.94 31.3,59.94 36.04,35.78 1.97,18.17 38.67,53.29 26.14,25.02 37.57,51.16 70.69,67.03 24.76,11.86 32.93,41.09 79.14,50.42 31.96,6.45 -0.65,-8.81 26.73,1.87 33.43,13.02 73.17,9.14 105.38,-6.03 36.7,-17.28 77.71,-44.94 94.95,-84.31 24.86,-56.78 19.9,-50.77 25.71,-112.28 2.09,-22.19 3.11,-16.3 0.24,-39.86 -2.1,-17.21 2.28,-21.68 0.21,-38.3 -4.03,-32.25 -19.11,-74.72 -34.34,-102.92 -17.41,-32.25 -60.63,-74.93 -93.88,-89.37l-58.1 -30.69c3.32,-23.36 8.8,-24.29 13.18,-42.43 5.09,-21.12 -8.5,-21.69 5.9,-34.84 6.39,-7.97 -5.35,-2.82 5.58,0.48 18.98,5.72 31.33,14.56 45.25,24.32 22.3,15.63 40.33,13.59 68.89,14.94 19.79,0.93 26.98,-2.29 33.11,12.62 48.9,-0.71 59.61,-21.96 100.02,-30.44 31.72,-6.65 64.89,-0.51 91.5,-24.15 7.95,-7.07 3.71,-6.82 16.8,-16.51 41.96,-31.08 30.83,-30.6 49.57,-50.49 21.17,-22.48 9.95,-7.18 19.25,-38.95 7.62,-26.03 3.77,-25.89 2.35,-53.31 21.75,-0.65 57.74,7.91 83.39,4.73 15.49,-1.93 13.16,-4.61 13.56,-4.75 28.6,-9.64 116.26,-4.62 128.69,-5.19 21.01,-0.97 3.28,-0.73 17.86,-8.33 10.05,-5.24 31.95,-9.62 43.99,-10.48 17.04,-1.23 36.07,1.59 50.93,-3.02 21.56,-6.68 16.95,-9.9 39.58,-14.3 50.22,-9.79 61.35,-22.23 85.73,-27.29 12.84,-2.67 13.61,-2.83 23.31,-5.95 48.33,-15.55 102.52,-24.04 143.85,-51.85 43.12,-29.01 102.97,-36.16 152.43,-68.42 14.94,-9.74 25.62,-9.41 41.8,-17.03 42.79,-20.17 38.82,-23.52 68.72,-43.58 9.57,-6.42 23.34,-13.11 35.09,-19.26l68.84 -39.34c54,-34.25 88.7,-81.58 115.83,-105.37 28.85,-25.29 33.34,-44.16 51.77,-60.77 19.36,-17.43 9.98,-11.84 19.1,-34.7 5.99,-15 16.46,-16.27 28.41,-26.11 2.39,-15.9 -1.24,-19.55 -1.84,-30.15 -0.78,-14.06 0.95,-5.58 3.98,-19.72 -13.06,-8.44 -10.13,-1.11 -23.59,-13.27 -37.2,4.86 -59.39,24.93 -79.42,53.89 -17.21,24.9 -6.35,16.17 -30.72,35.88 -12.41,10.04 -6.08,7.53 -15.27,18.08 -5.72,6.56 -9.98,8.58 -16.01,13.6 -19.35,16.1 -11.51,21.76 -28.31,38.17 -12.43,12.13 -22.93,14.47 -35.23,27.48 -22.82,24.15 -47.53,40.03 -73.43,55.82 -13.05,7.96 -4.96,6.34 -19.14,13.93 -34.53,18.48 -71.17,34.38 -103.92,58.85 -30.19,22.56 -78.11,34.46 -108.76,53.74 -19.47,12.25 -47.91,17.63 -69.31,26.55 -9.36,3.9 -13.67,7.97 -21.84,11.43 -6.82,2.88 -15.15,4.87 -22.2,7.4 -8.14,2.92 -17.48,5.73 -24.55,8.6 -45.79,18.64 -95.38,30.85 -142.75,48.66 -29.2,10.97 -102.43,16.68 -127.89,30.39 -30.77,16.57 -77.44,9.13 -114.19,14.65l-117.12 5.1c-17.67,-0.31 -140.7,-23.31 -163.3,-32.95 -16.6,-7.09 -27.97,-9.34 -46.91,-15.44 -46.53,-14.98 -54.87,-20.5 -94.11,4.85 2.84,16.36 3.99,16.05 10.02,29.15 7.82,16.98 16.24,32.15 33.26,42.14 43.26,25.4 109.22,15.47 149.94,39.63 -12.36,11.05 -16.21,18.42 -22.09,32.87 -3.24,7.95 -1.59,2.07 -4.8,11.34 -2.28,6.59 -1.66,6.4 -3.5,12.81l-8.34 33.75c-87.36,0.15 -64.58,7.32 -117.27,41.34 -24.95,16.1 -112.1,4.44 -131.76,-7.81l-9.48 -12.95c-3,-4.33 -2.81,-4.32 -6.8,-9.88 -16.7,-23.22 1.48,-7.74 -21.2,-16.14 -18.21,-6.75 -27.74,-17.49 -44.77,-26.33 -87.29,-45.32 -104.17,14.61 -170.04,-42.45l-54.97 -53.36c-33.28,-32.55 -0.6,-23.38 -62.1,-46.28 -39.23,-14.61 -40.92,-13.72 -76.07,-36.46 -31.08,-20.1 -25.8,-35.53 -66.58,-12.36 -10.07,5.72 -11.16,8.46 -24.63,7.12 -28.09,-2.77 -50.52,-15.85 -66.39,-41.83 -12.45,-20.38 -3.12,-44.73 -7.38,-57.53 -5.27,-15.82 -7.46,0.28 -6.19,-25.03l6.47 -56.05c1.61,-14.22 3.16,-16.76 8.39,-25.12 19.21,0.95 26.64,9.5 42.22,15.01 14.13,5 -1.52,-4.45 5.78,5.38 10.99,14.78 35.03,24.64 46.89,35.06 10.82,9.52 14.62,7.95 26.17,15.07 58.59,36.09 114.76,84.46 185.57,106.54 20.19,6.29 32.66,20.5 57.53,12.87 29.23,-8.98 33.73,-13.26 49.44,-35.67 -11.66,-18.73 -11.3,-12.81 -17.99,-40.33 -42.27,-7.41 -47.82,-23.45 -90.74,-32.14 -21.19,-4.29 -94.97,-55.26 -112.52,-69.89l-146.56 -95.09c-15.61,-11.04 -15,-18.18 -30.3,-27.99 -11.48,-7.36 -8.32,-2.08 -20.19,-13.09l-30.47 -28.12c-14.35,-16.23 -34.05,-30.44 -44.83,-46.8 -23.39,-35.53 -65.48,-68.17 -82.91,-100.23 -0.45,-0.81 -0.91,-1.93 -1.31,-2.8l-39.89 -72.99c-7.58,-18.3 -20.18,-18.55 -24.1,-38.02 -9.08,-45.06 -38.93,-82.45 -52.35,-127.3 -11.28,-37.74 -14.04,-19.35 -18.97,-43.43 -4.1,-20.05 -4.71,-26.41 -11.45,-47.16 -9.91,-30.51 -13.79,-14.22 -15.71,-40.85 -1.46,-20.17 -11.16,-23.22 -13.44,-42.27 -2.31,-19.24 5.16,-7.83 -1.77,-23.98 -3.07,-7.17 -8.28,0.23 -6.56,-19.23 0.89,-10.08 6.56,-4.31 2.13,-18.43 -5.54,-17.63 -5.07,3.6 -6.22,-19.09 -1.83,-36.27 -3.52,-69.33 -8.27,-105.41 -2.5,-19.05 -4.91,-8.1 -5.95,-25.81 -1.1,-18.62 3.85,-15.55 4.59,-21.88l-0.42 -34.98c29.73,-4.01 123.11,-0.2 183.94,-5.05 41.59,-3.31 45.46,-5.75 81.57,-14.13 32.95,-7.65 49.75,-18.63 69.84,-23.33 -16.99,-37.58 -5.42,-34.1 0.81,-50.13 -13.59,-10.34 -0.42,0.53 -11.15,-4.28 -0.87,-0.39 -2.06,-0.83 -2.92,-1.26 -0.85,-0.43 -1.99,-0.95 -2.81,-1.41 -0.8,-0.46 -1.87,-1.11 -2.63,-1.61 -38.37,-25.14 3.37,-3.46 -58.13,0.64 -20.36,1.35 -30.97,7.6 -50.17,7.54 -65.52,-0.21 -137.2,4.32 -204.93,2.1 -25.81,-0.85 -14.63,9.32 -44.74,2.67 -21.69,-4.78 -27.65,-1.45 -47.06,-0.81 -79.05,2.6 -130.77,-14.78 -200.6,-18.07 -57.12,-2.69 -136.26,-22.32 -187.63,-38.38 -12.57,-3.93 -29.13,-10.4 -44.44,-13.89l-38.98 -10.84c-25.69,-12.48 -64.86,-17.59 -85.13,-27.7 -13.83,-6.9 -28.85,-11.8 -40.92,-17.53 -13.86,-6.59 -7.15,-3.22 -21.78,-7.68 -23.67,-7.21 -67.19,-34.37 -94.19,-47.06l-141.25 -88.37c-0.77,-0.51 -1.77,-1.2 -2.52,-1.73l-30.61 -23.02c-37.86,-31.59 -69.13,-43.29 -81.51,-60.63 -9.79,-13.71 -29.48,-22.12 -41.28,-33.51l-4.03 -4.09c-9.78,-9.03 -20.66,-16.3 -32.88,-25.81l-33.31 -25.19c-5.72,-4.15 -4.34,-3.56 -8.8,-7.96 -4.8,-4.72 -0.6,-1.17 -6.17,-6.28 -19.59,-17.98 -52.08,-34.96 -65.85,-46.55 -7.97,-6.71 -4.4,-8.13 -12.56,-16.27l-33.26 -25.3c-11.5,-10.41 -6.31,-5.32 -17.35,-11.91 -7.45,-4.45 -1.96,-0.08 -7.55,-4.96l-97.61 -90.2c-8.69,-9.45 -15.56,-21.23 -24.7,-29.19 -10.71,-9.32 -23.34,-15.76 -30.9,-26.09 -19.62,-26.81 -23.91,-17.15 -55.97,-49.77 -18.88,-19.21 -11.02,-21.19 -20.25,-33.97 -8.35,-11.56 -4.76,-3.72 -17.66,-11.14 -13.69,-7.88 -19.55,-15.32 -26.19,-27.88 -19.95,-37.78 -18.95,-21.71 -44.71,-47.48 -14,-14 -2.05,-10.35 -21.02,-24.43 -20.31,-15.07 -13.06,-17.23 -22.91,-35.3 -3.75,-6.89 -2.84,-4.73 -7.52,-10l-11.97 -18.76c-10.26,-23.2 -10.25,0.37 -16.66,-16.95 -5.09,-13.76 1.97,3.84 -1.25,-7.78 -7.03,-25.41 -15.41,-4.96 -23.23,-27.02 -4.16,-11.73 4.54,-18.85 -15.12,-35.98 -14.77,-12.86 -20.63,-8.51 -26.25,-33.12 -6.03,-26.4 -6.54,-19.81 -17.02,-40.41l-22.79 -31.27c-19.76,-26.03 -1.73,-20.74 -26.91,-52.65 -6.39,-8.09 -3.11,-3.54 -3.14,-10.98 -0.06,-13.62 -6.09,-26.15 -10.06,-42.87 -5.51,-23.22 -7.93,-17.39 -9.25,-46.65 -0.12,-0.05 -0.28,0.26 -0.3,0.26l-5.12 -0.26c-0.31,-7.14 4.71,-86.7 5.05,-87.55 15.34,-25.65 129.6,-10.6 156.95,-12.03 25.41,-1.32 24.73,3.39 48.2,6.05 18.3,2.07 38.16,-0.37 55.49,1.57 14.48,1.62 29.66,7.02 47.17,7.61 22.78,0.77 19.46,-4.5 46.49,-0.63 24.88,3.56 24.45,2.84 45.04,9.83 20.16,6.84 23.12,-2.95 46.21,2.83 28.91,7.23 43.62,17.75 88.36,17.71 13.91,-0.02 20.07,7.55 37.28,10.25 23,3.61 31.35,-5.07 54.45,5.15 17.69,7.83 17.04,8.42 40.46,12.83l69.6 14.24c11.11,1.32 -0.39,0.67 9.07,0.34l47 10.49c15.01,5.15 26.79,7.72 42.57,11.25 75.55,16.9 43.61,6.3 88.19,11.9 30.22,3.8 64.57,32.44 105.96,35.42 20.63,1.49 3.9,-3.24 19.71,-0.71 18.74,3 4.75,10.44 35.87,16.29l128.46 38.22c49.32,21.89 74.68,5.02 119.24,35.77 22.26,15.35 60.06,18.34 79.89,29.73 0.17,-0.54 0.05,-1.5 0.05,-1.68l-0.05 -7.52c19.79,-0.43 10.15,-2.21 18.98,5.47 0.89,0.77 4.37,5.88 5.35,7.25 0.37,0.53 1.38,3.3 1.65,2.65 0.26,-0.65 1,1.85 1.62,2.69 29.75,-0.23 13.91,5.49 43.89,8.64 25.97,2.73 8.89,1.28 20.22,10.27l59.16 23.93c6.99,1.39 8.2,1.09 13.8,2.94l80.5 23.88c29.82,8.71 4.08,1.74 19.62,13.83 17.74,13.82 51.54,0.73 77.43,25.21 0.63,0.59 -9.43,-6.61 2.87,3.19 11,8.75 -1.41,2.69 25.97,2.6l5.8 7.2c2.25,2.47 2.14,2.92 6.14,6.07 18.45,14.5 37.88,12.41 59.23,11.86l5.55 7.65c0.51,0.55 1.35,1.58 1.89,2.07 9.85,9.03 22.28,4.34 35.05,10.15l-0.59 5.44c0.54,4.99 -8.57,-1.64 4.74,6.84 25.76,16.43 49.73,17.41 75.52,24.9 35.6,10.34 10.94,16.6 31.94,25.09 11.95,4.84 33.24,-4.35 48.57,-7.35l0.46 -42.69c9.71,-7.76 1.37,7.48 -1.77,-3 -0.05,-0.16 -0.36,-1.12 -0.4,-1.31 -0.05,-0.23 -0.22,-1.31 -0.26,-1.58 -0.77,-5.51 0.56,2.88 -0.25,-6.13 -1.87,-21.12 -47,-35.5 -63.73,-44.38 -18.37,-9.74 -46.66,-23.36 -64.93,-29.57zm1286.87 1638.96c1.24,38.12 -7.99,15.33 -16.38,53.46l-9.38 24.36c-11.58,23.67 -50.87,168.9 14.96,182.21 0.81,0.16 2.04,0.41 2.84,0.47 7.93,0.62 25.73,-6.17 30.77,-17.89 7.86,-18.28 -0.25,-49.35 0.83,-59.42 1.39,-12.96 5.09,-6.79 10.49,-20.65 3.43,-8.81 3.25,-16.13 6.64,-26.7 0.4,-1.26 5.62,-14.84 5.8,-15.2l18.61 -31.13c10.62,-20 19.66,-63.48 44.87,-88.73 13.73,-13.75 67.35,-43.81 85.08,-44.67 51.82,-2.5 63.04,-6.85 117.31,5.44 36.17,8.19 23.39,0.63 47.07,19.73 -4.26,11.13 -6.97,16.56 -14.69,25.23 -25.91,29.07 -3.51,8.89 -22.74,51.88 -4.26,9.53 -5.36,16.34 -6.01,28.4 -2.15,39.67 -8.36,31.09 -13.27,55.49l-10.24 61.31c-1.18,58.61 -3.05,20.16 -8.64,59.02 -2.85,19.77 -5.13,43.48 -10.65,59.87l-22.52 48.12c-19.42,24.84 -27.09,3.59 -15.83,39.07 -25.35,-0.51 -31.41,7.52 -32.27,29.36 -31.21,4.36 -41.9,30.3 -108.38,42.68 -57.66,10.73 -133.37,-0.05 -190.17,-20.26 -42.06,-14.97 -50.68,-32.73 -62.58,-45.14 -36.18,-37.73 -32.03,-47.98 -49.38,-95.86 -5.3,-14.64 -0.31,-8.79 -1.07,-28.58 -2.29,-59.41 2.04,-30.32 2.47,-63.13 0.98,-73.63 -3.95,-20.87 9.92,-63.04 14.86,-45.2 22.68,-90.99 56.58,-127.23 5.22,-5.58 8.94,-12.85 15,-18.29 25.7,-23.09 83.59,-20.41 124.96,-20.17zm2057.82 -1121.8c6.72,6.46 5.38,3.06 -0.74,5.19 1.85,7.03 3.82,5.85 -2.6,5.85 -2.1,44.73 -16.22,82.87 -23.53,126.46 -5.65,33.73 -17.71,47.66 -14.22,76.16 2.22,18.15 -3.29,-0.78 -10.69,27.97 -24.78,96.13 -49.5,125.39 -84.22,208.22 9.1,21.2 0.54,-11.04 8.49,13.46 -19.46,21.48 -12.08,-1.89 -26.15,18.26 -11.67,16.71 -8.56,24.54 -13.16,37.71 -4.59,13.13 -18.9,13.24 -27.98,48.62 -1.63,6.36 -0.45,3.33 -1.37,7.71l-30.78 33.16c-9.88,15.38 -3.5,17.49 -18.12,32.19 -16.71,-17.78 -23.98,-37.99 -37.19,-52.89 -16.53,-18.62 -13.87,-22.02 -35,-52.94 -29.31,-42.91 -32.24,-30.81 -35.8,-49.01 -2.58,-13.16 1.83,-14.26 -16.54,-27.65 -23.44,-17.08 -10.17,0.37 -15.58,-20.61 -7.12,-27.6 -133.39,-178.95 -146.17,-202.76 -9.21,0 -5.94,1.87 -6.12,-9.11l-0.14 1.23 -13.24 -12.9c-6.17,-6.93 -5.37,-6.45 -11.01,-13.69 -7.46,-9.57 -14.81,-18.48 -22.41,-27.87 -8.97,-11.06 -12.9,-17.47 -21.46,-28.38 -18.82,-23.99 -17.61,-8.91 -33.44,-37.6 -15.99,-28.99 -67.02,-70.84 -75.65,-93.71 59.98,25.81 138.96,51.77 207.96,48.88 52.29,-2.2 112.07,3.51 169.11,-14.14l73.28 -22.71c8.7,-3.31 12.71,-5.22 24.08,-8.98 26.76,-8.85 65.81,-23.62 87.51,-38.12l74.56 -54.38c15.08,-18.53 71.22,-69.93 86.42,-101.88 9.43,9.61 3.7,-0.71 10.56,16.41 7.68,19.14 -2.13,65.86 -2.14,65.9 -1.04,14.69 3.81,6.14 9.22,28.43 -17.76,5.44 -14.07,2.83 -18.11,25.76 -2.5,14.19 -4.15,27.71 -7.62,41.75zm141.21 -440.54c50.66,-17.62 117.92,-13.12 164.01,-27.43 46.87,-14.56 113.39,-8.04 163.5,-24.08 22.87,-7.32 24.86,-2.61 45.95,-4.26 23.73,-1.83 10.22,-7.46 37.27,-8.94 16.95,-0.93 33.11,2.5 50,0.6 16.58,-1.87 21.7,-4.41 41.84,-4.74 56.64,-0.92 120.69,-6.01 175.21,-10.85 30.89,-2.74 53.84,2.66 89.19,-0.52 40.12,-3.62 90.12,-6.47 122.79,12.01 50.82,28.75 37.15,29.22 30.26,84.77l-30.02 159.75c-5.55,23.78 -17.68,42.76 -20.93,76.32 -2.95,30.43 -3.51,11.71 -10.67,34.34l-22.33 73.13c-9.42,38.33 -20.54,40.95 -28.04,68.62 -1.2,4.44 -4.29,14.86 -6.21,18.62 -0.44,0.87 -1.09,1.89 -1.57,2.73 -0.47,0.83 -1.2,1.8 -1.68,2.61l-20.59 41.8c-8.73,20.36 6.27,6.93 -10.38,26.73 -9.86,11.72 -10.64,9.98 -16.96,29.03 -8.42,25.4 -25.32,37.4 -34.31,61.55 -8.1,21.73 -33.89,50.84 -46.5,74.7l-8.36 12.94c-13,17.28 -20.02,32 -34.94,52.08 -13.12,17.66 -30.6,28.71 -42.43,49.21 -11.32,19.62 -20.19,26.23 -34.61,40.44l-33.2 37.92c-15.8,13.3 -8.71,4.56 -22.78,22.7 -16.72,21.54 -32.22,21.29 -50.85,45.07 -19.59,25 -23.62,27.74 -50.55,41.42 -47.7,24.24 -63.39,53.95 -120.55,71.86 -25.86,8.1 -16.27,12.59 -29.98,19.15 -8.96,4.29 -22.42,4.07 -36.31,10.01 -10.15,4.34 -22.71,9.21 -32.23,13.69 -18.66,8.78 -10.59,8.41 -21.34,24.32 -61.87,-2.54 -23.67,0.37 -57.34,13.52 -20.09,7.85 -25.14,0.8 -34.19,7.18l-4.51 3.76c-13.12,9.94 -22.26,12.12 -38.58,12.56l-88.14 19.7c-29.05,6.96 -11.63,8.83 -27.57,12.62 -18.95,4.51 -53.41,4.37 -72.7,15.33 -32.24,18.3 -88.05,-3.4 -121.44,27.39 -12.09,-24.7 -34.43,-52.5 -43.45,-73.84 13.66,-15.43 16.49,-23.5 28.19,-39.59l26.56 -39.85c19.46,-32.68 58.26,-87.49 72.73,-127.27 10.4,-28.63 9.41,-24.78 22.29,-44.59 12.11,-18.6 70.13,-165.8 74.02,-188.5 2.24,-13.07 -0.87,-17.04 1.91,-24.82 4.02,-11.22 4.42,0.35 11,-20.9 5.4,-17.4 5.94,-36.64 9.59,-49.63 8.6,-30.66 7.49,-22.46 9.34,-56.95 0.65,-12.11 4.22,-15.29 8.19,-26.12 6.28,-17.11 5.86,-32.63 9.19,-47.59 19.34,-86.88 -16.78,-64.59 54.3,-100.13 40.16,-20.07 55.37,-19.41 93.34,-31.83l64.75 -23.57c13.29,-4.8 8.72,-5.47 24.27,-8.25 42.69,-7.65 108.46,-25.96 145.99,-41.62 16.9,-7.06 34.99,-6.82 53.58,-13.16l74.8 -21.03c59.56,-16.18 122.37,-17.28 181.95,-30.98 36.09,-8.3 71.27,-13.32 111.45,-14.74 9.25,-3.57 4.65,-6.04 9.14,-10.09l26.63 -19.09c-5.63,-37.68 -17.58,-28.36 -32.54,-53.37 -14.84,0.58 -13.32,3.47 -25.27,3.38 -14.01,-0.09 -11.61,-3.07 -21.24,-3.07 -24.54,0 -2.32,11.83 -36.8,11.67 -3.02,-6.42 17.83,-6.7 -0.26,-6.47 -33.1,0.43 -44.03,13.52 -67.73,11.92 -25.72,-1.74 -59.87,15.5 -93.33,14.28 -10.15,-0.37 -18.33,-1.44 -26.56,1.28 -21.75,7.19 -5.88,6.06 -18.43,10.16 -9.15,2.99 -34.81,2.29 -51.67,6.72 -8.97,2.36 -14.3,5.45 -22.57,7.73l-70.67 16.44c-16.72,4.46 -34.19,9.43 -49.05,13.62 -44.02,12.4 -43.56,21.99 -89.99,27.48l-213.81 80.12c3.62,-18.77 5.25,-2.93 3.23,-23.46 -0.66,-6.76 -1.69,-5.97 -2.71,-20.17 -3.22,-44.69 4.11,-78.28 -2.79,-129.52 -5.16,-38.32 11.13,-47.73 19.56,-79.38 6.02,-22.6 -0.02,-17.16 15.03,-35.15 11.95,-14.27 6.53,-19.08 10.64,-39.47z"/>
 </g>
</svg>
